<?xml version="1.0" standalone="no"?>
<!DOCTYPE svg PUBLIC "-//W3C//DTD SVG 20010904//EN"
 "http://www.w3.org/TR/2001/REC-SVG-20010904/DTD/svg10.dtd">
<svg version="1.0" xmlns="http://www.w3.org/2000/svg"
 width="120.000000pt" height="120.000000pt" viewBox="0 0 120.000000 120.000000"
 preserveAspectRatio="xMidYMid meet">
<metadata>
Created by potrace 1.11, written by Peter Selinger 2001-2013
</metadata>
<g transform="translate(0.000000,120.000000) scale(0.100000,-0.100000)"
fill="#000000" stroke="none">
<path d="M522 1152 c-29 -8 -52 -18 -52 -23 0 -5 -6 -9 -13 -9 -23 0 -88 -71
-109 -116 -20 -47 -38 -130 -30 -139 3 -3 7 -21 9 -41 2 -20 11 -46 19 -59 17
-27 11 -33 -39 -39 -41 -5 -71 -23 -94 -56 -24 -34 -73 -138 -73 -155 0 -8 -5
-15 -10 -15 -6 0 -9 -3 -8 -8 1 -4 -10 -41 -26 -83 -28 -76 -30 -115 -8 -156
10 -18 61 -40 107 -46 37 -5 41 -14 38 -91 -2 -42 0 -77 4 -77 5 -1 167 -2
361 -3 244 -1 356 2 363 10 5 6 7 38 6 73 -3 68 2 83 30 87 96 14 122 34 127
99 3 38 -5 70 -45 168 -66 162 -73 177 -81 177 -5 0 -8 6 -8 14 0 29 -66 63
-127 65 -21 1 -21 1 -3 49 21 56 23 160 4 196 -7 15 -14 30 -15 34 -9 35 -69
96 -119 122 -70 36 -135 42 -208 22z"/>
</g>
</svg>
